<mxfile host="65bd71144e" pages="5">
    <diagram id="jz7GBZe-TnGTNvj8S2ea" name="OAuth2">
        <mxGraphModel dx="1965" dy="704" grid="1" gridSize="10" guides="1" tooltips="1" connect="1" arrows="1" fold="1" page="0" pageScale="1" pageWidth="850" pageHeight="1100" math="0" shadow="0">
            <root>
                <mxCell id="0"/>
                <mxCell id="1" parent="0"/>
                <mxCell id="9b8kCh4Hl7g7pEhA91Xv-80" style="edgeStyle=orthogonalEdgeStyle;rounded=0;orthogonalLoop=1;jettySize=auto;html=1;exitX=1;exitY=0.5;exitDx=0;exitDy=0;entryX=-0.002;entryY=0.868;entryDx=0;entryDy=0;entryPerimeter=0;fontSize=18;" parent="1" source="16" target="45" edge="1">
                    <mxGeometry relative="1" as="geometry"/>
                </mxCell>
                <mxCell id="16" value="&lt;span style=&quot;font-size: 18px&quot;&gt;GitHub&lt;/span&gt;" style="rounded=0;whiteSpace=wrap;html=1;" parent="1" vertex="1">
                    <mxGeometry x="680" y="600" width="200" height="80" as="geometry"/>
                </mxCell>
                <mxCell id="9b8kCh4Hl7g7pEhA91Xv-79" style="edgeStyle=orthogonalEdgeStyle;rounded=0;orthogonalLoop=1;jettySize=auto;html=1;exitX=1;exitY=0.5;exitDx=0;exitDy=0;entryX=0;entryY=0.115;entryDx=0;entryDy=0;entryPerimeter=0;fontSize=18;" parent="1" source="18" target="45" edge="1">
                    <mxGeometry relative="1" as="geometry"/>
                </mxCell>
                <mxCell id="18" value="&lt;font face=&quot;helvetica&quot;&gt;&lt;span style=&quot;font-size: 18px&quot;&gt;Google&lt;/span&gt;&lt;/font&gt;" style="rounded=0;whiteSpace=wrap;html=1;" parent="1" vertex="1">
                    <mxGeometry x="680" y="360" width="200" height="80" as="geometry"/>
                </mxCell>
                <mxCell id="67" style="edgeStyle=none;html=1;exitX=0;exitY=0.5;exitDx=0;exitDy=0;entryX=1;entryY=0.5;entryDx=0;entryDy=0;rounded=0;" parent="1" source="45" target="62" edge="1">
                    <mxGeometry relative="1" as="geometry">
                        <mxPoint x="560" y="510" as="targetPoint"/>
                        <Array as="points">
                            <mxPoint x="610" y="520"/>
                        </Array>
                    </mxGeometry>
                </mxCell>
                <mxCell id="68" value="&lt;font style=&quot;font-size: 18px&quot; color=&quot;#8af065&quot;&gt;refreshToken,&lt;br&gt;&lt;br&gt;accessTokent&lt;/font&gt;" style="edgeLabel;html=1;align=center;verticalAlign=middle;resizable=0;points=[];" parent="67" vertex="1" connectable="0">
                    <mxGeometry x="0.0514" y="-5" relative="1" as="geometry">
                        <mxPoint x="22" y="1" as="offset"/>
                    </mxGeometry>
                </mxCell>
                <mxCell id="73" style="edgeStyle=none;html=1;entryX=0.5;entryY=0;entryDx=0;entryDy=0;entryPerimeter=0;fontSize=18;fontColor=#8AF065;rounded=0;" parent="1" target="52" edge="1">
                    <mxGeometry relative="1" as="geometry">
                        <mxPoint x="1180" y="510" as="sourcePoint"/>
                        <Array as="points">
                            <mxPoint x="1240" y="510"/>
                            <mxPoint x="1240" y="440"/>
                            <mxPoint x="1395" y="440"/>
                        </Array>
                    </mxGeometry>
                </mxCell>
                <mxCell id="45" value="&lt;font face=&quot;helvetica&quot;&gt;&lt;span style=&quot;font-size: 18px&quot;&gt;User&lt;br&gt;username: varchar&lt;br&gt;image: text&lt;br&gt;rtToken: text&lt;br&gt;&lt;/span&gt;&lt;/font&gt;" style="rounded=0;whiteSpace=wrap;html=1;" parent="1" vertex="1">
                    <mxGeometry x="1000" y="465" width="179" height="130" as="geometry"/>
                </mxCell>
                <mxCell id="69" style="edgeStyle=none;html=1;exitX=1;exitY=0.25;exitDx=0;exitDy=0;entryX=0;entryY=0.25;entryDx=0;entryDy=0;fontSize=18;fontColor=#8AF065;rounded=0;" parent="1" source="46" target="62" edge="1">
                    <mxGeometry relative="1" as="geometry"/>
                </mxCell>
                <mxCell id="46" value="&lt;span style=&quot;font-size: 18px&quot;&gt;Client&lt;/span&gt;" style="whiteSpace=wrap;html=1;" parent="1" vertex="1">
                    <mxGeometry x="-40" y="440" width="200" height="160" as="geometry"/>
                </mxCell>
                <mxCell id="74" style="edgeStyle=none;html=1;exitX=0.5;exitY=1;exitDx=0;exitDy=0;exitPerimeter=0;fontSize=18;fontColor=#8AF065;rounded=0;" parent="1" source="52" edge="1">
                    <mxGeometry relative="1" as="geometry">
                        <mxPoint x="1180" y="560" as="targetPoint"/>
                        <Array as="points">
                            <mxPoint x="1395" y="620"/>
                            <mxPoint x="1240" y="620"/>
                            <mxPoint x="1240" y="560"/>
                        </Array>
                    </mxGeometry>
                </mxCell>
                <mxCell id="52" value="DB" style="shape=cylinder3;whiteSpace=wrap;html=1;boundedLbl=1;backgroundOutline=1;size=15;" parent="1" vertex="1">
                    <mxGeometry x="1320" y="460" width="150" height="140" as="geometry"/>
                </mxCell>
                <mxCell id="70" style="edgeStyle=none;html=1;exitX=0;exitY=0.75;exitDx=0;exitDy=0;entryX=1;entryY=0.75;entryDx=0;entryDy=0;fontSize=18;fontColor=#8AF065;rounded=0;" parent="1" source="62" target="46" edge="1">
                    <mxGeometry relative="1" as="geometry"/>
                </mxCell>
                <mxCell id="9b8kCh4Hl7g7pEhA91Xv-77" style="edgeStyle=orthogonalEdgeStyle;rounded=0;orthogonalLoop=1;jettySize=auto;html=1;exitX=1;exitY=0.75;exitDx=0;exitDy=0;entryX=0;entryY=0.5;entryDx=0;entryDy=0;fontSize=18;" parent="1" source="62" target="16" edge="1">
                    <mxGeometry relative="1" as="geometry">
                        <Array as="points">
                            <mxPoint x="520" y="580"/>
                            <mxPoint x="600" y="580"/>
                            <mxPoint x="600" y="640"/>
                        </Array>
                    </mxGeometry>
                </mxCell>
                <mxCell id="9b8kCh4Hl7g7pEhA91Xv-78" style="edgeStyle=orthogonalEdgeStyle;rounded=0;orthogonalLoop=1;jettySize=auto;html=1;exitX=1;exitY=0.25;exitDx=0;exitDy=0;entryX=0;entryY=0.5;entryDx=0;entryDy=0;fontSize=18;" parent="1" source="62" target="18" edge="1">
                    <mxGeometry relative="1" as="geometry">
                        <Array as="points">
                            <mxPoint x="520" y="470"/>
                            <mxPoint x="600" y="470"/>
                            <mxPoint x="600" y="400"/>
                        </Array>
                    </mxGeometry>
                </mxCell>
                <mxCell id="62" value="&lt;span style=&quot;font-size: 18px&quot;&gt;/signup&lt;/span&gt;" style="whiteSpace=wrap;html=1;" parent="1" vertex="1">
                    <mxGeometry x="320" y="440" width="200" height="160" as="geometry"/>
                </mxCell>
                <mxCell id="71" value="&lt;font style=&quot;font-size: 18px&quot; color=&quot;#8af065&quot;&gt;refreshToken,&lt;br&gt;&lt;br&gt;accessTokent&lt;/font&gt;" style="edgeLabel;html=1;align=center;verticalAlign=middle;resizable=0;points=[];" parent="1" vertex="1" connectable="0">
                    <mxGeometry x="780.4347558710056" y="530.0864272779411" as="geometry">
                        <mxPoint x="-518" y="28" as="offset"/>
                    </mxGeometry>
                </mxCell>
            </root>
        </mxGraphModel>
    </diagram>
</mxfile>